<svg width="192" height="192" viewBox="0 0 192 192" fill="none" xmlns="http://www.w3.org/2000/svg">
  <rect width="192" height="192" rx="40" fill="url(#grad)"/>
  <g transform="translate(36,40) scale(5)" stroke="white" stroke-width="2.2" stroke-linecap="round" stroke-linejoin="round" fill="none">
    <path d="M4 4c4 0 6 3 8 3s4-3 8-3"/>
    <path d="M4 10c4 0 6 3 8 3s4-3 8-3"/>
    <path d="M4 16c4 0 6 3 8 3s4-3 8-3"/>
    <line x1="7" y1="4" x2="7" y2="10"/>
    <line x1="12" y1="7" x2="12" y2="13"/>
    <line x1="17" y1="4" x2="17" y2="10"/>
    <line x1="9.5" y1="10" x2="9.5" y2="16"/>
    <line x1="14.5" y1="10" x2="14.5" y2="16"/>
  </g>
  <defs>
    <linearGradient id="grad" x1="0" y1="0" x2="192" y2="192" gradientUnits="userSpaceOnUse">
      <stop stop-color="#4F6AE8"/>
      <stop offset="1" stop-color="#7C66DC"/>
    </linearGradient>
  </defs>
</svg>
