<svg width="192" height="192" viewBox="0 0 192 192" fill="none" xmlns="http://www.w3.org/2000/svg">
  <rect width="192" height="192" rx="40" fill="url(#grad)"/>
  <path d="M96 50C82.7 50 72 60.7 72 74c0 16.5 24 42 24 42s24-25.5 24-42c0-13.3-10.7-24-24-24z" fill="none" stroke="white" stroke-width="6" stroke-linecap="round" stroke-linejoin="round"/>
  <path d="M131.36 65.22a22 22 0 0 0-31.12 0L96 69.46l-4.24-4.24a22 22 0 0 0-31.12 31.12l4.24 4.24L96 131.7l31.12-31.12 4.24-4.24a22 22 0 0 0 0-31.12z" fill="none" stroke="white" stroke-width="5.5" stroke-linecap="round" stroke-linejoin="round"/>
  <defs>
    <linearGradient id="grad" x1="0" y1="0" x2="192" y2="192" gradientUnits="userSpaceOnUse">
      <stop stop-color="#4F6AE8"/>
      <stop offset="1" stop-color="#7C66DC"/>
    </linearGradient>
  </defs>
</svg>
