<svg width="512" height="512" viewBox="0 0 512 512" fill="none" xmlns="http://www.w3.org/2000/svg">
  <rect width="512" height="512" rx="96" fill="url(#bg)"/>
  <defs>
    <linearGradient id="bg" x1="0" y1="0" x2="512" y2="512" gradientUnits="userSpaceOnUse">
      <stop stop-color="#4F6AE8"/>
      <stop offset="1" stop-color="#7C66DC"/>
    </linearGradient>
  </defs>
  <!-- Back strand -->
  <path d="M80 256C120 140,176 140,256 256C336 372,392 372,432 256" stroke="rgba(255,255,255,0.45)" stroke-width="12" stroke-linecap="round" fill="none"/>
  <!-- Base pair connectors -->
  <line x1="140" y1="192" x2="140" y2="320" stroke="white" stroke-width="4.5" opacity="0.18" stroke-linecap="round"/>
  <line x1="192" y1="156" x2="192" y2="356" stroke="white" stroke-width="5.5" opacity="0.22" stroke-linecap="round"/>
  <line x1="256" y1="144" x2="256" y2="368" stroke="white" stroke-width="6.5" opacity="0.3" stroke-linecap="round"/>
  <line x1="320" y1="156" x2="320" y2="356" stroke="white" stroke-width="5.5" opacity="0.22" stroke-linecap="round"/>
  <line x1="372" y1="192" x2="372" y2="320" stroke="white" stroke-width="4.5" opacity="0.18" stroke-linecap="round"/>
  <!-- Front strand -->
  <path d="M80 256C120 372,176 372,256 256C336 140,392 140,432 256" stroke="white" stroke-width="12" stroke-linecap="round" fill="none"/>
  <!-- Crossover dots -->
  <circle cx="166" cy="256" r="10" fill="white" opacity="0.5"/>
  <circle cx="346" cy="256" r="10" fill="white" opacity="0.5"/>
  <!-- You node -->
  <circle cx="256" cy="144" r="20" fill="white"/>
  <circle cx="256" cy="144" r="30" fill="none" stroke="white" stroke-width="3" opacity="0.3"/>
  <!-- Descendant branches -->
  <path d="M240 160C220 218,198 268,182 336" stroke="white" stroke-width="8" stroke-linecap="round" fill="none" opacity="0.7"/>
  <path d="M272 160C292 218,314 268,330 336" stroke="white" stroke-width="8" stroke-linecap="round" fill="none" opacity="0.7"/>
  <!-- Children nodes -->
  <circle cx="180" cy="340" r="15" fill="white" opacity="0.8"/>
  <circle cx="332" cy="340" r="15" fill="white" opacity="0.8"/>
  <!-- Subtle glow rings -->
  <circle cx="180" cy="340" r="22" fill="none" stroke="white" stroke-width="2" opacity="0.15"/>
  <circle cx="332" cy="340" r="22" fill="none" stroke="white" stroke-width="2" opacity="0.15"/>
</svg>
