<svg width="512" height="512" viewBox="0 0 512 512" fill="none" xmlns="http://www.w3.org/2000/svg">
  <rect width="512" height="512" rx="96" fill="url(#grad)"/>
  <g transform="translate(96,96) scale(13.3)" stroke="white" stroke-width="2.4" stroke-linecap="round" stroke-linejoin="round" fill="none">
    <path d="M2 15c6.667-6 13.333 0 20-6"/>
    <path d="M2 9c6.667 6 13.333 0 20 6"/>
    <path d="M9 22c1.798-1.998 2.518-3.995 2.807-5.993"/>
    <path d="M15 2c-1.798 1.998-2.518 3.995-2.807 5.993"/>
    <path d="M17 6l-2.5-2.5"/>
    <path d="M14 9.5l-2.5-2.5"/>
    <path d="M7 18l2.5 2.5"/>
    <path d="M10 14.5l2.5 2.5"/>
  </g>
  <defs>
    <linearGradient id="grad" x1="0" y1="0" x2="512" y2="512" gradientUnits="userSpaceOnUse">
      <stop stop-color="#4F6AE8"/>
      <stop offset="1" stop-color="#7C66DC"/>
    </linearGradient>
  </defs>
</svg>
