<svg width="512" height="512" viewBox="0 0 512 512" fill="none" xmlns="http://www.w3.org/2000/svg">
  <rect width="512" height="512" rx="96" fill="url(#grad)"/>
  <g transform="translate(96,106) scale(13.3)" stroke="white" stroke-width="2.2" stroke-linecap="round" stroke-linejoin="round" fill="none">
    <path d="M4 4c4 0 6 3 8 3s4-3 8-3"/>
    <path d="M4 10c4 0 6 3 8 3s4-3 8-3"/>
    <path d="M4 16c4 0 6 3 8 3s4-3 8-3"/>
    <line x1="7" y1="4" x2="7" y2="10"/>
    <line x1="12" y1="7" x2="12" y2="13"/>
    <line x1="17" y1="4" x2="17" y2="10"/>
    <line x1="9.5" y1="10" x2="9.5" y2="16"/>
    <line x1="14.5" y1="10" x2="14.5" y2="16"/>
  </g>
  <defs>
    <linearGradient id="grad" x1="0" y1="0" x2="512" y2="512" gradientUnits="userSpaceOnUse">
      <stop stop-color="#4F6AE8"/>
      <stop offset="1" stop-color="#7C66DC"/>
    </linearGradient>
  </defs>
</svg>
